<svg xmlns="http://www.w3.org/2000/svg"  x="0px" y="0px" width="100" height="100" viewBox="0 0 48 48">
            <linearGradient id="SVGID_1__hv0mDR4iMaYl_gr1" x1="37.747" x2="10.253" y1="16.536" y2="44.031" gradientUnits="userSpaceOnUse">
              <stop offset="0%" stop-color="#00FFD1" />
              <stop offset="50%" stop-color="#8F00FF" />
              <stop offset="100%" stop-color="#FF007F" />
            </linearGradient>
            <path fill="url(#SVGID_1__hv0mDR4iMaYl_gr1)" d="M40.5,40.863V21.775c0-1.838-0.843-3.575-2.287-4.713L24.619,6.351c-0.363-0.286-0.875-0.286-1.238,0L9.787,17.062C8.343,18.199,7.5,19.936,7.5,21.775v19.089c0,0.552,0.448,1,1,1h31C40.052,41.863,40.5,41.416,40.5,40.863z"></path>
            <path fill="none" stroke="#EAEFF4" stroke-linecap="round" stroke-linejoin="round" stroke-miterlimit="10" stroke-width="3" d="M18.542,35.681V27.5c0-0.552,0.448-1,1-1h8.917c0.552,0,1,0.448,1,1v14"></path>
</svg>